<svg version="1.2" xmlns="http://www.w3.org/2000/svg" viewBox="0 0 1080 1080">
	<path d="m68 187h252c13.3 0 24 10.7 24 24v252c0 13.3-10.7 24-24 24h-252c-13.3 0-24-10.7-24-24v-252c0-13.3 10.7-24 24-24z"/>
	<path d="m599 592h252c13.3 0 24 10.7 24 24v252c0 13.3-10.7 24-24 24h-252c-13.3 0-24-10.7-24-24v-252c0-13.3 10.7-24 24-24z"/>
	<path d="m246 592h252c13.3 0 24 10.7 24 24v252c0 13.3-10.7 24-24 24h-252c-13.3 0-24-10.7-24-24v-252c0-13.3 10.7-24 24-24z"/>
	<path d="m760 190h252c13.3 0 24 10.7 24 24v252c0 13.3-10.7 24-24 24h-252c-13.3 0-24-10.7-24-24v-252c0-13.3 10.7-24 24-24z"/>
	<path d="m416 192h252c13.3 0 24 10.7 24 24v252c0 13.3-10.7 24-24 24h-252c-13.3 0-24-10.7-24-24v-252c0-13.3 10.7-24 24-24z"/>
</svg>